<?xml version="1.0" encoding="utf-8"?>
<!-- Generator: Adobe Illustrator 27.5.0, SVG Export Plug-In . SVG Version: 6.00 Build 0)  -->
<svg version="1.1" xmlns="http://www.w3.org/2000/svg" xmlns:xlink="http://www.w3.org/1999/xlink" x="0px" y="0px"
	 viewBox="0 0 750 500" style="enable-background:new 0 0 750 500;" xml:space="preserve">
<g id="BACKGROUND">
	<rect style="fill:#BFDBFF;" width="750" height="500"/>
</g>
<g id="OBJECTS">
	<g>
		<g>
			<g>
				<g>
					<path style="fill:#FF8E6E;" d="M164.684,160.068c-3.366-3.837-5.174-6.566-6.178-8.516c-0.597-1.16-0.233-5.372-0.534-7.295
						c-0.154-1.016-0.267-1.747-0.267-1.747c-0.151-0.796-0.833-3.86,2.096-4.035c1.873-0.121,3.583,1.044,3.906,2.89l0.972,5.266
						c0.061,0.369,0.318,2.075,1.094,2.035c0.49-0.025,0.868-0.231,1.164-0.576c1.63-1.895,0.332-7.906,0.332-7.906l-2.196-9.487
						c-0.438-1.603,0.062-3.906,2.352-4.48l-0.001-0.017c-0.082-0.275-0.128-0.671-0.131-1.068
						c-0.016-0.482,0.018-0.966,0.104-1.284c0.314-1.15,1.23-2.103,2.484-2.413c1.79-0.422,3.576,0.739,4.081,2.508l0.485,1.694
						l0.154,0.534c0,0,0.312,0.314,0.812,0.813c1.721,1.706,4.459,4.28,5.833,5.979c0.587,0.723,1.4,1.076,1.062,3.471l-1.171,7.334
						c0,0,0.753,3.302,0.654,6.339c-0.169,5.17-1.161,12.171-1.161,12.171s-3.615,1.665-9.622,0.723
						C166.892,162.355,164.684,160.068,164.684,160.068z"/>
					<g>
						<path style="fill:#CE6042;" d="M167.499,126.196l1.742,5.926l0.003,0.013c0.34,1.74,0.614,3.492,0.911,5.24l0.001,0.011
							l0.328,4.406c0.003,0.04-0.027,0.074-0.067,0.077c-0.03,0.002-0.056-0.014-0.069-0.038l-0.014-0.026
							c-0.37-0.708-0.616-1.426-0.854-2.145c-0.229-0.72-0.405-1.444-0.569-2.169l0.013,0.103c-0.132-0.427-0.237-0.858-0.357-1.287
							c-0.129-0.427-0.199-0.865-0.295-1.298c-0.204-0.864-0.305-1.746-0.439-2.623l0.029,0.127l-0.29-1.523
							c-0.078-0.513-0.14-1.03-0.201-1.548c-0.084-1.046-0.139-2.101-0.018-3.205l0.003-0.028c0.004-0.04,0.04-0.068,0.08-0.064
							C167.467,126.148,167.491,126.169,167.499,126.196z"/>
					</g>
					<g>
						<path style="fill:#CE6042;" d="M177.258,142.928c-1.297-0.168-2.594-0.351-3.897-0.418c-0.65-0.049-1.301-0.075-1.949-0.055
							c-0.642,0.036-1.303,0.087-1.877,0.351c-0.035,0.016-0.077,0.001-0.093-0.034c-0.009-0.02-0.008-0.042,0.001-0.06l0.017-0.035
							c0.393-0.805,1.211-1.19,1.891-1.411c0.709-0.235,1.419-0.269,2.11-0.252c0.341,0.048,0.684,0.081,1.019,0.154
							c0.332,0.103,0.666,0.167,0.985,0.326c0.644,0.271,1.267,0.646,1.822,1.286l0.032,0.036c0.024,0.028,0.021,0.071-0.007,0.095
							C177.296,142.926,177.276,142.931,177.258,142.928z"/>
					</g>
					<g>
						<path style="fill:#CE6042;" d="M165.776,148.591c0.805-0.477,1.718-0.544,2.604-0.346c0.896,0.185,1.756,0.747,2.365,1.536
							c0.565,0.81,0.899,1.793,0.799,2.704c0.006,0.456-0.167,0.883-0.287,1.293c-0.201,0.398-0.417,0.775-0.731,1.107l-0.027,0.029
							c-0.027,0.028-0.071,0.029-0.099,0.003c-0.016-0.015-0.023-0.035-0.022-0.055l0.067-1.105
							c-0.033-0.365,0.001-0.737-0.082-1.094c-0.09-0.727-0.396-1.406-0.818-1.983c-0.418-0.585-1.007-1.043-1.666-1.354
							c-0.661-0.302-1.382-0.508-2.108-0.584c-0.039-0.004-0.067-0.039-0.063-0.077c0.002-0.023,0.016-0.042,0.034-0.053
							L165.776,148.591z"/>
					</g>
					<g>
						<path style="fill:#CE6042;" d="M175.561,142.377c-0.216-1.141-0.314-2.266-0.341-3.382c-0.034-0.561-0.008-1.113-0.009-1.669
							c-0.008-0.557,0.046-1.106,0.072-1.659l0.282,0.964c-0.751-0.742-1.402-1.554-2.081-2.357
							c-0.637-0.847-1.28-1.643-1.844-2.654c-0.147-0.241-0.321-0.602-0.434-0.948c-0.092-0.352-0.141-0.703-0.143-1.045
							c-0.01-0.684,0.14-1.345,0.454-1.926c0.294-0.584,0.767-1.085,1.332-1.384c0.567-0.303,1.208-0.354,1.748-0.221l0.025,0.006
							c0.039,0.01,0.063,0.049,0.053,0.088c-0.008,0.032-0.035,0.054-0.066,0.055c-1.027,0.06-1.91,0.809-2.217,1.772
							c-0.325,0.946-0.24,2.057,0.365,2.868c0.582,0.844,1.241,1.649,1.892,2.451l1.959,2.411c0.023,0.027,0.033,0.066,0.029,0.099
							l-0.928,6.549c-0.006,0.04-0.043,0.068-0.083,0.062c-0.032-0.005-0.056-0.029-0.062-0.059L175.561,142.377z"/>
					</g>
				</g>
				<g>
					<path style="fill:#F26419;" d="M181.171,183.027c-0.36,8.38-0.57,18.49-5.11,25.85c-4.21,6.82-13.06,9.12-20.19,5.59
						c-4.22-2.09-7.84-5.65-11.16-8.93c-2.65-2.62-5.11-5.19-7.45-7.85c-4.68-5.33-8.45-11.12-12.73-16.83
						c-7.9-10.58-11.18-28.05-2.83-27.76c12.57,0.43,21.05,4.23,25.91,8.62l0.14,0.13c3.93,3.56,7.55,7.48,11,11.46
						c1.4-3.44,2.87-6.89,4.49-10.31c1.85,1.24,4.81,2.16,7.86,2.54c3.92,0.49,7.96,0.21,9.82-0.36
						C181.421,171.176,181.421,177.077,181.171,183.027z"/>
					<g>
						<path style="fill:#B03B09;" d="M158.801,173.328c-1.057,2.476-2.054,4.979-2.989,7.502c-0.958,2.515-1.864,5.053-2.564,7.652
							c-0.007,0.026-0.034,0.042-0.061,0.035c-0.022-0.006-0.037-0.026-0.037-0.048l0-0.011c0.036-2.789,0.8-5.438,1.725-7.979
							c0.496-1.262,1.014-2.514,1.665-3.709l0.991-1.784c0.39-0.568,0.73-1.157,1.176-1.698l0.008-0.01
							c0.017-0.021,0.048-0.024,0.069-0.007C158.805,173.285,158.809,173.308,158.801,173.328z"/>
					</g>
					<path style="fill:#B03B09;" d="M182.247,164.88c0-1.218,0.003-2.546-0.338-2.894c-0.353-0.361-1.185-0.396-1.185-0.396
						l-0.065,0.483v0c-1.253,0.215-3.971,0.834-8.406,0.282c-5.128-0.639-8.061-3.034-8.214-3.03
						c-0.693,0.019-1.348,1.139-1.858,2.337c-0.616,1.448-0.593,2.656-0.389,2.957c1.316,1.944,5.242,3.405,9.312,3.916
						c5.016,0.63,10.23-0.012,10.816-0.892C182.295,167.082,182.247,166.058,182.247,164.88z"/>
				</g>
			</g>
			<g>
				<g>
					<path style="fill:#6B2231;" d="M151.101,294.007l-31.02,3.2l-39.45-6.57c-0.56-10.6-1.15-21.33-1.65-30.07
						c-0.73-12.9,1.32-25.81,6.03-37.84l3.54-9.05c0,0,25.57,4.65,59.53,1.99l2.39,24.73
						C150.471,240.396,150.991,268.267,151.101,294.007z"/>
					<g>
						<path style="fill:#601222;" d="M120.011,297.206l-0.027-28.257l0.061-28.257l0-0.106l0.106,0l14.762,0.031v0.15
							c-2.46,0.238-4.921,0.359-7.381,0.527c-2.46,0.183-4.921,0.218-7.381,0.334l0.935-0.934c0.231,4.71,0.26,9.419,0.312,14.129
							l0.073,7.064l-0.1,7.064l-0.1,7.064c-0.051,2.355-0.178,4.709-0.263,7.064c-0.162,4.709-0.447,9.418-0.848,14.127
							L120.011,297.206z"/>
					</g>
				</g>
				<g>
					<path style="fill:#FF8E6E;" d="M150.801,328.417c-0.84,22.25-7.52,88.76-7.52,88.76l-24.74-0.01c0,0-1.1-10.74-2.35-24.27
						c-2,13.55-3.78,24.27-3.78,24.27l-24.75,0.04c0,0-4.67-66.56-5.32-88.79c-0.26-8.7-0.95-23.13-1.71-37.78l39.45,6.57l31.02-3.2
						C151.161,307.507,151.101,320.417,150.801,328.417z"/>
					<g>
						<path style="fill:#CE6042;" d="M115.471,397.24c1.695-11.421,3.308-22.857,4.605-34.329c0.318-2.868,0.625-5.738,0.875-8.613
							c0.127-1.437,0.247-2.875,0.342-4.314c0.118-1.442,0.162-2.87,0.109-4.311c-0.218-5.76-0.836-11.508-1.473-17.242
							l-0.001-0.008v-0.007l0.082-31.21l0.15,0c0.173,2.601,0.287,5.202,0.399,7.803c0.114,2.601,0.249,5.202,0.299,7.803
							l0.209,7.803c0.066,2.601,0.159,5.202,0.159,7.803l-0.008-0.141c0.701,5.763,1.382,11.483,1.667,17.351
							c0.085,1.456,0.007,3.045-0.125,4.458c-0.112,1.451-0.247,2.896-0.391,4.339c-0.283,2.887-0.621,5.762-0.97,8.635
							c-0.661,5.75-1.615,11.457-2.551,17.16l-0.716,4.275l-0.807,4.261c-0.543,2.839-1.084,5.678-1.706,8.504L115.471,397.24z"/>
					</g>
				</g>
				<g>
					<g>
						<path style="fill:#F26419;" d="M112.457,417.144v21.419H76.862c0.069-0.277,0.182-0.536,0.337-0.778
							c1.703-2.732,3.63-5.307,5.091-8.168c0.89-1.737,3.544-6.95,3.544-6.95l1.85-5.523H112.457z"/>
						<path style="fill:#FFEBDB;" d="M112.457,438.563v1.34c0,1.383-1.115,2.498-2.489,2.498H79.766
							c-1.807,0-2.878-1.348-2.999-2.775c-0.026-0.354,0-0.717,0.095-1.063H112.457z"/>
					</g>
					<g>
						<path style="fill:#F26419;" d="M118.501,417.144v21.333H180.4c-0.009-1.435-0.787-2.878-2.498-3.518l-18.861-6.682
							l-15.766-11.116L118.501,417.144z"/>
						<path style="fill:#FFEBDB;" d="M118.501,438.477v3.924h58.069c2.299,0,3.674-1.729,3.812-3.544
							c0.009-0.13,0.017-0.251,0.017-0.38H118.501z"/>
					</g>
				</g>
			</g>
			<g>
				<path style="fill:#F26419;" d="M148.081,215.667l-0.2-2.04l-2.522-26.111c0,0,4.389-6.338,4.299-8.78
					c-0.201-5.463-7.915-13.549-12.3-18.08c-4.578-4.729-10.984-7.679-18.047-7.679h-11.24c-4.61,0-17.372,0.397-21.102,2.577
					c-9.21,5.42-5.148,17.293-2.958,27.763l4.51,30.16l0.03,0.2c-4.574,2.08-6.042,10.186-6.042,10.186s39.183,10.915,68.613,4.149
					C151.122,228.012,152.21,220.352,148.081,215.667z"/>
				<g>
					<path style="fill:#B03B09;" d="M80.557,230.967c-0.936-3.099,1.952-7.104,1.952-7.104c0.385,0.107,40.282,10.662,68.613,4.149
						c0,0,2.055,4.62,0.832,6.536c-2.01,3.149-19.482,4.145-38.008,2.751C96.942,236.02,81.057,232.625,80.557,230.967z"/>
				</g>
				<g>
					<path style="fill:#B03B09;" d="M146.354,198.336l-1.07-10.813c-0.002-0.018,0.004-0.036,0.013-0.05
						c1.471-2.219,2.909-4.501,3.88-6.977c0.212-0.624,0.42-1.265,0.364-1.914c-0.046-0.326-0.064-0.656-0.128-0.98l-0.244-0.962
						c-0.41-1.263-1.012-2.457-1.675-3.611c-1.377-2.283-3.011-4.409-4.748-6.436c-1.733-2.033-3.568-3.979-5.424-5.903
						c-0.019-0.02-0.019-0.051,0.001-0.071c0.019-0.018,0.051-0.016,0.071,0.001c2.035,1.749,4.02,3.565,5.847,5.548
						c0.922,0.983,1.82,1.994,2.681,3.045c0.848,1.06,1.618,2.19,2.354,3.352c0.706,1.185,1.359,2.421,1.824,3.783l0.286,1.058
						c0.081,0.36,0.106,0.744,0.145,1.117c0.054,0.873-0.219,1.642-0.455,2.303c-0.528,1.33-1.188,2.526-1.883,3.699
						c-0.705,1.166-1.419,2.307-2.251,3.394l0.123-0.472l0.285,5.431c0.032,1.816,0.123,3.627,0.103,5.448l0,0.005
						c0,0.027-0.023,0.05-0.05,0.049C146.377,198.38,146.356,198.361,146.354,198.336z"/>
				</g>
			</g>
			<g>
				<g>
					<path style="fill:#F26419;" d="M116.626,196.4c-5.027-2.021-12.752-4.852-17.72-6.67c-0.991-0.374-1.974-0.737-2.949-1.099
						c0.193-0.252,0.382-0.501,0.579-0.755c0.721-0.967,1.472-1.943,2.246-2.917c3.475-4.482,7.645-9.08,7.639-15.091
						c-0.004-4.168-1.779-8.21-4.848-11.031c-6.099-5.608-15.588-5.21-21.196,0.889c-0.636,0.691-1.075,1.212-1.592,1.808
						l-1.443,1.76c-0.941,1.184-1.851,2.393-2.752,3.624c-0.882,1.245-1.754,2.513-2.618,3.816
						c-0.844,1.317-1.672,2.677-2.496,4.094c-0.835,1.415-1.611,2.921-2.396,4.554c-2.475,5.148-4.424,10.971-3.481,16.747
						c1.702,10.421,12.442,13.922,21.506,15.356c3.061,0.484,5.996,0.86,8.929,1.079c5.867,0.481,11.539,0.63,17.454,0.321
						L116.626,196.4z"/>
					<g>
						<path style="fill:#B03B09;" d="M95.229,188.202c-0.659-1.218-2.005-1.969-3.369-2.126c-1.377-0.202-2.774,0.077-4.104,0.46
							c-1.336,0.396-2.647,0.88-3.9,1.488c-1.251,0.603-2.469,1.306-3.558,2.154l-0.083-0.165c2.592-0.555,5.202-1.018,7.831-1.355
							c1.314-0.165,2.634-0.298,3.96-0.351c1.321-0.045,2.665-0.056,3.964,0.277c0.026,0.007,0.042,0.034,0.036,0.06
							c-0.006,0.024-0.03,0.04-0.054,0.037l-0.009-0.001c-1.31-0.154-2.616-0.055-3.916,0.115c-1.299,0.163-2.597,0.341-3.887,0.586
							c-1.289,0.249-2.576,0.509-3.868,0.743c-1.286,0.253-2.58,0.528-3.844,0.83c-0.466,0.111-0.933-0.176-1.045-0.642
							c-0.078-0.327,0.041-0.656,0.28-0.861l0.009-0.007c1.192-1.015,2.46-1.647,3.784-2.26c1.321-0.583,2.673-1.102,4.08-1.405
							c1.405-0.309,2.918-0.539,4.4-0.23c1.456,0.31,2.874,1.236,3.383,2.613c0.01,0.026-0.004,0.055-0.03,0.064
							C95.268,188.235,95.241,188.224,95.229,188.202z"/>
					</g>
					<g>
						<g>
							<path style="fill:#B03B09;" d="M116.608,196.447l-20.686-7.721c-0.052-0.019-0.078-0.076-0.059-0.128l0.015-0.027
								l3.354-4.328c1.131-1.433,2.276-2.853,3.33-4.339c1.054-1.484,1.997-3.053,2.703-4.73c0.691-1.68,1.092-3.485,1.106-5.304
								c0-0.028,0.023-0.05,0.05-0.049c0.026,0,0.047,0.024,0.05,0.049c0.182,1.837-0.139,3.722-0.718,5.504
								c-0.644,1.763-1.551,3.418-2.555,4.977c-0.987,1.577-2.158,3.002-3.25,4.455l-3.277,4.374l-0.401-1.391l5.144,2.007
								c1.709,0.685,3.439,1.313,5.126,2.058l5.084,2.167c1.673,0.78,3.366,1.506,5.019,2.333c0.026,0.01,0.039,0.039,0.029,0.065
								C116.663,196.442,116.633,196.453,116.608,196.447z"/>
							<path style="fill:#B03B09;" d="M85.112,211.436c2.179,0.336,4.365,0.628,6.559,0.844c2.193,0.209,4.395,0.358,6.595,0.474
								c4.4,0.256,8.815,0.298,13.219,0.082c0.027-0.001,0.051,0.02,0.052,0.047c0.001,0.024-0.016,0.046-0.039,0.051l-0.008,0.002
								c-1.092,0.248-2.194,0.374-3.297,0.543c-1.105,0.11-2.212,0.194-3.322,0.272c-2.219,0.127-4.44,0.054-6.66,0
								c-2.216-0.197-4.416-0.341-6.62-0.7c-1.097-0.191-2.19-0.394-3.276-0.626c-1.078-0.286-2.16-0.529-3.22-0.89l-0.008-0.003
								c-0.026-0.009-0.04-0.037-0.031-0.063C85.065,211.446,85.089,211.432,85.112,211.436z"/>
						</g>
					</g>
				</g>
				<path style="fill:#B03B09;" d="M101.122,212.924c0,0,14.986-0.383,15.087-20.681h27.417c0,0,5.027,10.053,6.413,14.17
					c1.364,4.05,5.013,15.574-2,17.053c-10.097,2.128-37.477,0.297-39.41-0.906C104.61,220.057,101.122,212.924,101.122,212.924z"/>
			</g>
			<g>
				<path style="fill:#FF8E6E;" d="M107.061,152.986c0.37-0.01,0.71-0.01,1.01-0.01h11.24c2.84,0,5.58,0.48,8.13,1.37
					c0,0,1.368,7.769,0,10.86L107.061,152.986z"/>
				<path style="fill:#6B2231;" d="M104.643,129.31c0,0-2.735,9.64-12.688,9.64c0,0,6.11,4.092,12.643,3.761
					c-1.757,1.721-4.069,3.485-7.092,4.902c0,0,14.561,2.238,18.837-8.325L104.643,129.31z"/>
				<path style="fill:#6B2231;" d="M133.816,133.258c0,0,0.816,9.987,10.581,11.915c0,0-6.787,2.831-13.132,1.241
					c1.39,2.028,3.317,4.207,6.008,6.182c0,0-14.718-0.624-16.868-11.816L133.816,133.258z"/>
				<g>
					<path style="fill:#F26419;" d="M124.142,150.479c0,0,2.657-2.067,4.741-1.358c1.968,0.669,2.315,3.332,2.315,3.332
						s3.46-1.069,4.577,0.16c1.912,2.104-0.894,6.622-8.33,12.59C127.445,165.203,128.754,159.81,124.142,150.479z"/>
					<g>
						<path style="fill:#B03B09;" d="M136.169,155.451c-0.128,1.137-0.613,2.222-1.221,3.173c-0.599,0.969-1.331,1.833-2.104,2.645
							c-1.577,1.593-3.347,2.972-5.376,3.964l-0.007,0.003c-0.018,0.009-0.041,0.001-0.05-0.017
							c-0.008-0.016-0.003-0.034,0.01-0.045c1.704-1.391,3.362-2.843,4.885-4.427c0.769-0.784,1.505-1.601,2.168-2.476
							c0.66-0.874,1.26-1.808,1.623-2.843c0.007-0.019,0.028-0.029,0.047-0.023c0.017,0.006,0.027,0.022,0.025,0.039
							L136.169,155.451z"/>
					</g>
					<g>
						<path style="fill:#B03B09;" d="M131.248,152.447c0.427,0.867,0.543,1.806,0.568,2.719c0.029,0.92-0.102,1.824-0.283,2.711
							c-0.425,1.757-1.119,3.453-2.381,4.855l-0.012,0.013c-0.018,0.02-0.048,0.021-0.068,0.004
							c-0.015-0.014-0.02-0.035-0.013-0.053c0.615-1.644,1.127-3.327,1.5-5.039c0.199-0.853,0.368-1.713,0.478-2.582
							c0.103-0.867,0.178-1.749,0.113-2.615c-0.002-0.027,0.018-0.051,0.045-0.053c0.021-0.002,0.039,0.01,0.048,0.027
							L131.248,152.447z"/>
					</g>
				</g>
				<g>
					<defs>
						<polygon id="SVGID_1_" points="125.487,155.9 108.719,153.182 112.264,135.207 127.8,137.724 						"/>
					</defs>
					<use xlink:href="#SVGID_1_"  style="overflow:visible;fill:#FF8E6E;"/>
					<clipPath id="SVGID_00000162326630752983509650000001169834600787928475_">
						<use xlink:href="#SVGID_1_"  style="overflow:visible;"/>
					</clipPath>
					<g style="clip-path:url(#SVGID_00000162326630752983509650000001169834600787928475_);">
						<path style="fill:#CE6042;" d="M129.991,135.926l-2.12,16.66c-0.92,0.13-1.87,0.19-2.82,0.19c-6.65,0-12.62-3.08-16.54-7.88
							l2.38-12.07L129.991,135.926z"/>
					</g>
				</g>
				<g>
					<g>
						<g>
							<path style="fill:#FF8E6E;" d="M97.367,129.538c2.806,2.995,7.218,3.42,9.856,0.95c2.637-2.471,2.501-6.901-0.305-9.897
								c-2.806-2.995-7.218-3.42-9.856-0.95C94.425,122.112,94.562,126.543,97.367,129.538z"/>
							<path style="fill:#CE6042;" d="M98.688,121.994c0,0,5.859-0.574,6.628,5.514L98.688,121.994z"/>
						</g>
						<g>
							<path style="fill:#FF8E6E;" d="M146.982,129.538c-2.806,2.995-7.218,3.42-9.856,0.95c-2.637-2.471-2.501-6.901,0.305-9.897
								c2.806-2.995,7.218-3.42,9.856-0.95C149.924,122.112,149.788,126.543,146.982,129.538z"/>
							<path style="fill:#CE6042;" d="M145.661,121.994c0,0-5.859-0.574-6.628,5.514L145.661,121.994z"/>
						</g>
					</g>
					<path style="fill:#FF8E6E;" d="M122.175,147.811L122.175,147.811c-9.563,0-17.386-7.824-17.386-17.386v-14.8
						c0-9.563,7.824-17.386,17.386-17.386h0c9.563,0,17.386,7.824,17.386,17.386v14.8
						C139.561,139.987,131.737,147.811,122.175,147.811z"/>
					<g>
						<path style="fill:#601222;" d="M115.18,124.296L115.18,124.296c-0.584,0-1.062-0.478-1.062-1.062v-3.815
							c0-0.584,0.478-1.062,1.062-1.062l0,0c0.584,0,1.062,0.478,1.062,1.062v3.815C116.242,123.818,115.764,124.296,115.18,124.296
							z"/>
						<path style="fill:#601222;" d="M129.17,124.296L129.17,124.296c-0.584,0-1.062-0.478-1.062-1.062v-3.815
							c0-0.584,0.478-1.062,1.062-1.062l0,0c0.584,0,1.062,0.478,1.062,1.062v3.815C130.232,123.818,129.754,124.296,129.17,124.296
							z"/>
					</g>
					<path style="fill:none;stroke:#CE6042;stroke-linecap:round;stroke-linejoin:round;stroke-miterlimit:10;" d="M124.14,121.98
						c0,0-0.617,3.775,1.665,5.529l-2.02,2.021"/>
					<path style="fill:#FFEBDB;" d="M128.353,132.867c0,3.412-2.766,6.178-6.178,6.178c-3.412,0-6.178-2.766-6.178-6.178H128.353z"
						/>
					<path style="fill:#6B2231;" d="M104.788,118.952c0,0,25.646-3.792,23.389-11.898c0,0,3.067,5.489-0.552,7.915
						c0,0,6.511,0.383,4.979-7.277c0,0,6.18,3.115,6.957,11.26c0,0,2.246-6.792,0-12.6c-1.388-3.59-5.227-3.123-5.227-3.123
						s-1.464-8.238-13.017-6.451C114.355,97.855,101.089,104.106,104.788,118.952z"/>
				</g>
				<g>
					<path style="fill:#F26419;" d="M98.535,153.339c0,0,0.937-3.439,2.725-4.723c1.688-1.213,4.057,0.051,4.057,0.051
						s-0.225-3.618,2.788-3.633c3.606-0.017,17.106,9.511,19.34,20.17C127.445,165.203,111.688,155.704,98.535,153.339z"/>
					<g>
						<path style="fill:#B03B09;" d="M105.771,148.924c1.743,0.453,3.435,1.071,5.086,1.783c1.649,0.718,3.246,1.556,4.774,2.507
							c1.531,0.949,2.941,2.083,4.263,3.3c1.33,1.218,2.454,2.636,3.476,4.115c0.015,0.022,0.01,0.053-0.012,0.068
							c-0.019,0.013-0.043,0.011-0.06-0.003l-0.012-0.01c-0.704-0.605-1.227-1.316-1.943-1.865
							c-0.633-0.616-1.315-1.171-1.988-1.729c-1.379-1.074-2.761-2.13-4.259-3.032c-1.467-0.947-3.003-1.788-4.552-2.641
							c-0.776-0.424-1.568-0.824-2.374-1.202c-0.786-0.436-1.608-0.782-2.423-1.194l-0.011-0.006
							c-0.024-0.012-0.034-0.042-0.022-0.066C105.725,148.928,105.749,148.918,105.771,148.924z"/>
					</g>
					<g>
						<path style="fill:#B03B09;" d="M127.426,165.235l-7.112-3.309c-2.371-1.083-4.726-2.193-7.132-3.181
							c-2.373-1.066-4.799-1.992-7.227-2.923c-1.223-0.434-2.439-0.904-3.686-1.273c-1.225-0.461-2.49-0.76-3.742-1.174
							l-0.005-0.002c-0.02-0.006-0.03-0.028-0.024-0.047c0.006-0.018,0.024-0.028,0.042-0.025c2.574,0.483,5.104,1.168,7.597,1.968
							c2.482,0.832,4.928,1.769,7.339,2.787c4.797,2.096,9.476,4.459,13.987,7.114c0.018,0.01,0.024,0.033,0.013,0.051
							C127.468,165.239,127.443,165.243,127.426,165.235z"/>
					</g>
				</g>
			</g>
		</g>
		<g>
			<g>
				<g>
					<defs>
						<polygon id="SVGID_00000176005536332876838420000016276816794751381657_" points="298.484,153.804 281.591,152.822 
							283.031,136.06 298.744,136.972 						"/>
					</defs>
					<use xlink:href="#SVGID_00000176005536332876838420000016276816794751381657_"  style="overflow:visible;fill:#FF8E6E;"/>
					<clipPath id="SVGID_00000074436448435016293030000013131202029942954678_">
						<use xlink:href="#SVGID_00000176005536332876838420000016276816794751381657_"  style="overflow:visible;"/>
					</clipPath>
					<path style="clip-path:url(#SVGID_00000074436448435016293030000013131202029942954678_);fill:#CE6042;" d="M299.003,136.337
						l-0.299,12.502c-2.754,0.763-5.725,0.897-8.696,0.227c-3.126-0.691-5.869-2.176-8.087-4.198l0.877-9.469L299.003,136.337z"/>
				</g>
				<g>
					<g>
						<g>
							<path style="fill:#FF8E6E;" d="M268.656,124.3c2.307,3.395,6.6,4.5,9.589,2.469c2.989-2.031,3.542-6.43,1.236-9.824
								c-2.307-3.394-6.6-4.5-9.589-2.469C266.903,116.508,266.35,120.906,268.656,124.3z"/>
							<path style="fill:#CE6042;" d="M271.133,117.053c0,0,5.877,0.342,5.691,6.477L271.133,117.053z"/>
						</g>
						<g>
							<path style="fill:#FF8E6E;" d="M317.669,132.005c-3.237,2.523-7.662,2.258-9.884-0.592c-2.222-2.85-1.399-7.206,1.838-9.729
								c3.237-2.523,7.662-2.258,9.884,0.592C321.729,125.126,320.906,129.482,317.669,132.005z"/>
							<path style="fill:#CE6042;" d="M317.536,124.347c0,0-5.699-1.477-7.404,4.418L317.536,124.347z"/>
						</g>
					</g>
					<path style="fill:#FF8E6E;" d="M290.325,146.203L290.325,146.203c-9.447-1.485-15.961-10.429-14.476-19.875l2.298-14.621
						c1.485-9.447,10.429-15.961,19.875-14.476l0,0c9.447,1.485,15.961,10.429,14.476,19.876l-2.298,14.621
						C308.716,141.174,299.772,147.688,290.325,146.203z"/>
					<g>
						<path style="fill:#601222;" d="M287.067,121.888L287.067,121.888c-0.577-0.091-0.975-0.637-0.884-1.214l0.592-3.769
							c0.091-0.577,0.637-0.975,1.214-0.884l0,0c0.577,0.091,0.975,0.637,0.884,1.214l-0.592,3.769
							C288.19,121.581,287.644,121.978,287.067,121.888z"/>
						<path style="fill:#601222;" d="M300.887,124.06L300.887,124.06c-0.577-0.091-0.975-0.637-0.884-1.214l0.592-3.769
							c0.091-0.577,0.637-0.975,1.214-0.884l0,0c0.577,0.091,0.975,0.637,0.884,1.214l-0.592,3.769
							C302.01,123.753,301.464,124.151,300.887,124.06z"/>
					</g>
					<path style="fill:none;stroke:#CE6042;stroke-linecap:round;stroke-linejoin:round;stroke-miterlimit:10;" d="M296.278,120.991
						c0,0-1.196,3.634,0.786,5.72l-2.309,1.683"/>
					<path style="fill:#FFEBDB;" d="M298.749,132.401c-0.53,3.37-3.692,5.673-7.062,5.144c-3.371-0.53-5.673-3.692-5.144-7.062
						L298.749,132.401z"/>
					<path style="fill:#174566;" d="M315.618,98.708c-1.156-1.333-5.527,0.186-7.934,0.701c1.019-1.809,1.726-4.895-0.383-5.745
						c-4.595-1.851-22.253,3.356-25.293,5.585c-4.094,3.002-4.87,18.88-4.87,18.88s5.064-2.843,5.263-4.217
						c0.199-1.374-0.719-3.911-0.615-5.221c0.266-3.372,4.359-7.942,9.692-6.305c1.853,0.569,5.491,3.3,5.491,3.3
						s4.346-1.345,6.282-1.256c5.573,0.257,7.886,5.939,7,9.204c-0.345,1.268-2.064,3.348-2.339,4.708
						c-0.276,1.36,3.497,5.704,3.497,5.704s0.47-1.175,0.957-3.039C314.225,114.884,317.956,101.402,315.618,98.708z"/>
				</g>
			</g>
			<g>
				<g>
					<g>
						<g>
							<path style="fill:#174566;" d="M270.899,417.144v21.419h-35.595c0.069-0.277,0.182-0.536,0.337-0.778
								c1.703-2.732,3.63-5.307,5.091-8.168c0.89-1.737,3.544-6.95,3.544-6.95l1.85-5.523H270.899z"/>
							<path style="fill:#FFEBDB;" d="M270.899,438.563v1.34c0,1.383-1.115,2.498-2.489,2.498h-30.202
								c-1.806,0-2.878-1.348-2.999-2.775c-0.026-0.354,0-0.717,0.095-1.063H270.899z"/>
						</g>
						<polygon style="fill:#FF8E6E;" points="246.125,417.144 246.125,393.217 273.727,394.622 270.899,417.144 						"/>
					</g>
					<g>
						<g>
							<path style="fill:#174566;" d="M308.243,417.144v21.333h61.898c-0.009-1.435-0.787-2.878-2.498-3.518l-18.861-6.682
								l-15.766-11.116L308.243,417.144z"/>
							<path style="fill:#FFEBDB;" d="M308.243,438.477v3.924h58.069c2.299,0,3.674-1.729,3.812-3.544
								c0.009-0.13,0.017-0.251,0.017-0.38H308.243z"/>
						</g>
						<polygon style="fill:#FF8E6E;" points="308.24,417.144 304.143,393.217 331.984,394.622 333.016,417.161 						"/>
					</g>
				</g>
				<path style="fill:#8DB5EB;" d="M335.772,401.641l-34.55,3.43l-16.02-162.19l-9.18,162.72l-34.65-1.97l9.27-165.04l0.63-10.91
					c9.63,2.4,36.62,8.27,68.2,7.71l-0.05,0.8L335.772,401.641z"/>
			</g>
			<g>
				<g>
					<path style="fill:#FF8E6E;" d="M341.024,265.355c0.233,0.978,0.39,1.682,0.39,1.682c0.159,0.776,0.661,3.81,3.386,2.898
						c1.741-0.577,2.876-2.25,2.489-4.049l-1.046-5.145c-0.08-0.359-0.428-1.92,0.253-2.245c1.071-0.529,2.556,5.026,3.088,7.023
						c0.597,2.157,2.778,10.439,2.778,10.439c0.34,1.591,1.798,3.382,4.046,2.867l0.003,0.014c0.062,0.276,1.139,3.621,4.264,3.065
						c1.77-0.315,2.793-2.232,2.457-3.998c0,0-1.439-13.409-1.742-14.701c-1.171-4.988-6.6-17.689-6.6-17.689l-15.223,7.191
						c-0.895,1.738-0.529,3.683-0.721,5.814C338.726,259.794,340.594,263.494,341.024,265.355z"/>
					<g>
						<path style="fill:#CE6042;" d="M354.09,258.879l3.239,9.227l0.004,0.016l1.008,5.758l0.248,1.443
							c0.072,0.499,0,1.004-0.16,1.473c-0.32,0.947-1.082,1.709-1.991,2.09c-0.027,0.011-0.058-0.001-0.069-0.028
							c-0.01-0.023-0.002-0.049,0.018-0.063l0.008-0.006c0.8-0.578,1.349-1.347,1.474-2.184c0.083-0.402,0.073-0.835-0.026-1.166
							l-0.365-1.4c-0.225-0.951-0.455-1.901-0.642-2.859c-0.184-0.959-0.386-1.914-0.529-2.88l0.038,0.147
							c-0.515-1.546-0.989-3.107-1.386-4.694c-0.212-0.789-0.387-1.591-0.553-2.396c-0.141-0.814-0.325-1.612-0.417-2.443
							l-0.001-0.012c-0.003-0.029,0.018-0.055,0.046-0.058C354.06,258.841,354.083,258.856,354.09,258.879z"/>
					</g>
				</g>
				<g>
					<path style="fill:#FF8E6E;" d="M222.859,68.091c1.419-0.673,3.118-0.076,3.792,1.334l4.45,9.306
						c0.145-0.117,0.295-0.214,0.438-0.323l-4.532-14.879c-0.456-1.5,0.392-3.092,1.892-3.548c1.509-0.453,3.092,0.392,3.548,1.892
						l4.425,14.512c0.046-0.006,0.084-0.015,0.131-0.022l0.365-0.027l-1.172-15.684c-0.118-1.561,1.06-2.928,2.62-3.046
						c1.569-0.116,2.928,1.06,3.046,2.62l1.204,16.032c0.179,0.035,0.353,0.06,0.532,0.095l0.959-10.324
						c0.143-1.568,1.527-2.715,3.086-2.574c1.576,0.145,2.713,1.535,2.572,3.095l-1.202,12.952c0.078,0.082,0.153,0.181,0.231,0.263
						c1.698-3.085,3.483-5.172,3.607-5.312c1.027-1.19,2.821-1.313,4.011-0.287c1.179,1.033,1.313,2.821,0.278,4.009
						c-1.138,1.315-4.046,6.429-5.34,10.891c-1.399,4.823-4.992,8.094-9.788,8.475l-3.324,0.258
						c-5.901,0.467-11.096-3.979-11.566-9.871c-0.096-1.25,0.04-2.462,0.35-3.613l-5.948-12.433
						C220.844,70.462,221.449,68.765,222.859,68.091z"/>
					<g>
						<path style="fill:#CE6042;" d="M239.06,90.221c-0.35-1.083-0.455-2.29-0.163-3.469c0.125-0.594,0.37-1.161,0.647-1.719
							c0.343-0.509,0.659-1.066,1.123-1.484c0.212-0.231,0.443-0.436,0.688-0.623c0.242-0.191,0.473-0.402,0.744-0.544
							c0.523-0.32,1.071-0.578,1.626-0.801c1.147-0.394,2.268-0.593,3.52-0.523l-0.656,0.354c0.382-0.329,0.756-0.664,1.17-0.969
							c0.398-0.316,0.834-0.605,1.291-0.876l0.024-0.014c0.034-0.021,0.079-0.009,0.099,0.025c0.015,0.026,0.013,0.058-0.004,0.08
							l-1.776,2.368c-0.017,0.023-0.042,0.036-0.068,0.04l-0.007,0.001c-2.081,0.258-4.118,1.118-5.659,2.528
							c-0.4,0.341-0.711,0.764-1.04,1.172c-0.262,0.452-0.566,0.885-0.737,1.385c-0.439,0.961-0.575,2.023-0.671,3.073
							c-0.004,0.04-0.04,0.07-0.08,0.066c-0.03-0.003-0.054-0.023-0.063-0.05L239.06,90.221z"/>
					</g>
				</g>
				<g>
					<defs>
						<path id="SVGID_00000181067168790330765620000016587012898160431016_" d="M322.653,180.641l-3.15,54.14l-0.03,0.61
							c-31.58,0.56-58.57-5.31-68.2-7.71l0.04-0.57l2.92-50.44c0.82-14,12.82-24.69,26.82-23.88l17.72,1.03
							C312.772,154.631,323.462,166.641,322.653,180.641z"/>
					</defs>
					<use xlink:href="#SVGID_00000181067168790330765620000016587012898160431016_"  style="overflow:visible;fill:#FFEBDB;"/>
					<clipPath id="SVGID_00000052076533257528944980000003459646234963041464_">
						<use xlink:href="#SVGID_00000181067168790330765620000016587012898160431016_"  style="overflow:visible;"/>
					</clipPath>
					<path style="clip-path:url(#SVGID_00000052076533257528944980000003459646234963041464_);fill:#FF8E6E;" d="M304.122,152.311
						c-0.86,7.75-7.36,13.17-15.26,12.36c-8.47-0.88-15.33-8.61-15.32-17.27L304.122,152.311z"/>
				</g>
				<g>
					<g>
						<g>
							<path style="fill:#174566;" d="M253.162,176.792l0-0.001C253,176.682,253.08,176.736,253.162,176.792z"/>
							<path style="fill:#33658A;" d="M270.092,148.951h-0.4c-2.36-1.82-5.78-4.46-5.78-4.46c-2.54-1.93-5.04-3.94-6.77-5.43
								l-1.8-1.6c-0.07-0.19-0.14-0.37-0.21-0.59c-0.78-2.34-1.46-5.6-2.04-8.88c-0.61-3.3-1.13-6.78-1.68-10.3
								c-1.07-7.02-2.09-15.25-3.54-22.46l-16.07,0.73c-2.21,7-3.68,14.44-4.74,21.66c-0.56,3.87-0.96,7.78-1.17,11.85
								c-0.17,4.1-0.22,8.22,0.41,13.13c0.17,1.23,0.41,2.56,0.74,3.99c3.4,13.47,15.06,22.85,26.12,30.2
								c0.173,0.117,0.085,0.058,0,0.001l-2.186,23.654c0,0-2.781,6.644-3.994,9.261c-2.092,4.514,2.365,7.588,2.365,7.588
								l-0.057,1.894l26.443,3.582c2.92-23.49,5.858-69.949,5.858-69.949C278.151,149.532,273.163,148.951,270.092,148.951z"/>
						</g>
						<g>
							<g>
								<path style="fill:#174566;" d="M275.131,227.202c-0.83,0.633-8.233-0.302-14.489-1.346
									c-5.79-0.966-11.904-1.947-12.766-3.085c-0.567-0.748-0.04-4.862,0.766-5.385c0.694-0.451,5.762,0.801,13.646,1.808
									c9.841,1.256,13.928,1.237,14.12,2.194C276.673,222.717,276.115,226.451,275.131,227.202z"/>
							</g>
						</g>
						<path style="fill:#174566;" d="M282.045,147.533c0,0-6.18-0.124-8.175,2.011c-1.961,2.099-0.85,8.746,0,11.489
							c2.314,7.471,6.279,11.774,6.279,11.774l1.441-19.985L282.045,147.533z"/>
						<g>
							<path style="fill:#174566;" d="M229.433,101.104c-0.574-0.491-0.813-4.965,0.203-6.068c0.557-0.605,2.225,0.171,10.33-0.061
								c5.42-0.155,9.308-0.994,9.657-0.777c0.886,0.55,0.732,4.644-0.11,5.885C248.529,101.531,231.294,102.694,229.433,101.104z"
								/>
						</g>
					</g>
					<g>
						<path style="fill:#33658A;" d="M354.792,245.511l-15.22,7.2c-3.01-6.17-6.83-13.43-9.38-19.71c-1.31-3.13-2.5-6.29-3.75-9.42
							c-1.76-4.62-3.024-8.184-5.074-12.614l-0.074,2.983c0,0,2.279,5.757,2.507,7.901c0.335,3.16-2.785,3.404-2.785,3.404
							l-0.044,1.782c-10.354-0.534-23.883-2.457-23.883-2.457l1.395-70.775c0.16,0.01,0.628,0.049,1.629,0.127
							c13.54,1.27,30.6,8.22,34.7,16.84c2.94,6.2,3.97,8.2,6.64,14.54c1.37,3.16,2.6,6.37,3.91,9.7c2.68,6.85,4.26,14.25,5.59,21.54
							C351.572,219.921,354.172,238.651,354.792,245.511z"/>
						<path style="fill:#174566;" d="M298.562,148.758c0,0,6.364,2.343,7.484,3.989c1.562,2.295,0.227,7.465-0.867,10.121
							c-2.978,7.232-7.07,9.938-7.07,9.938l0.374-19.003L298.562,148.758z"/>
						<g>
							<path style="fill:#174566;" d="M338.504,252.929c-1.452-0.376-3.116-4.019-2.576-5.418c0.296-0.767,4.899-2.104,9.32-4.071
								c4.595-2.044,8.939-4.911,9.319-4.755c1.388,0.569,1.764,4.537,1.436,6C355.62,246.393,339.822,253.271,338.504,252.929z"/>
						</g>
						<g>
							<path style="fill:#174566;" d="M321.293,210.962l0.679-14.517l0.828-14.509c0.002-0.041,0.038-0.072,0.078-0.07
								c0.036,0.002,0.064,0.029,0.069,0.063l0.002,0.015c0.369,2.444,0.576,4.881,0.617,7.308c0.056,1.216,0.016,2.426,0.024,3.639
								l-0.121,3.632c-0.151,2.417-0.331,4.833-0.66,7.242c-0.293,2.41-0.749,4.812-1.367,7.205l-0.004,0.014
								c-0.01,0.04-0.051,0.064-0.09,0.053C321.314,211.029,321.292,210.997,321.293,210.962z"/>
						</g>
						<g>
							<path style="fill:#174566;" d="M324.557,211.342c0.26-0.71,0.58-1.39,0.916-2.064c0.334-0.675,0.68-1.35,1.094-1.984
								c0.405-0.641,0.827-1.274,1.297-1.887c0.468-0.614,0.971-1.219,1.612-1.733c0.32-0.259,0.656-0.512,1.06-0.719
								c0.403-0.223,0.904-0.345,1.315-0.411c0.861-0.128,1.682-0.074,2.474,0.035c1.591,0.241,3.017,0.795,4.455,1.445
								c0.411,0.185,0.594,0.669,0.409,1.08c-0.116,0.258-0.355,0.427-0.614,0.471c-0.986,0.159-2.008,0.405-3.005,0.646
								c-1.008,0.227-2.008,0.492-2.993,0.807c-0.981,0.324-1.943,0.697-2.905,1.088c-0.949,0.417-1.86,0.913-2.751,1.483
								l-0.007,0.004c-0.023,0.015-0.054,0.008-0.069-0.015c-0.014-0.021-0.009-0.049,0.01-0.065
								c1.615-1.376,3.529-2.332,5.489-3.101c1.971-0.753,4.003-1.337,6.077-1.741l-0.022,0.164
								c-1.353-0.59-2.778-1.047-4.231-1.298c-0.726-0.119-1.468-0.18-2.194-0.087c-0.735,0.065-1.383,0.436-1.959,0.894
								c-1.151,0.924-2.086,2.099-2.965,3.29c-0.87,1.202-1.673,2.456-2.406,3.747c-0.013,0.024-0.044,0.032-0.068,0.019
								c-0.022-0.012-0.03-0.038-0.022-0.06L324.557,211.342z"/>
						</g>
						<g>
							<g>
								<path style="fill:#174566;" d="M321.671,231.64c-0.497,0.446-7.488,0.223-13.931-0.359
									c-6.048-0.547-11.705-1.388-11.943-2.4c-0.344-1.458,0.09-5.538,0.713-5.928c0.701-0.439,4.888,0.334,13.327,1.148
									c9.875,0.953,12.124,0.924,12.433,1.851C322.556,226.813,322.465,230.928,321.671,231.64z"/>
							</g>
						</g>
					</g>
				</g>
			</g>
		</g>
		<g>
			<path style="fill:#6B2231;" d="M495.818,174.544h-45.9c0,0-14.457-17.49-12.138-52.06h34.88c0.011,3.71,0.403,11.14,2.963,16.96
				c1.503,3.38,3.976,5.73,7.06,7.45C498.858,155.905,495.818,174.544,495.818,174.544z"/>
			<g>
				<path style="fill:#FF8E6E;" d="M525.65,198.715c-0.16-1.28-0.52-2.56-1.1-3.8c-2.36-5.09-7.91-8.13-13.47-7.41
					c-5.26,0.69-9.37,4.43-10.78,9.21c-1.02,1.55-2.36,3.57-2.95,4.42l-5.8,8.03c-1.63,2.28-3.27,4.61-4.85,7.01
					c-0.35,0.52-0.69,1.04-1.03,1.57c-0.45,0.69-0.9,1.39-1.35,2.1c3.92,3.8,11.26,8.16,23.61,6.51c0.4-0.33,0.79-0.67,1.19-1.01
					c1.34-1.15,2.78-2.4,4.23-3.75C519.93,215.525,526.799,207.624,525.65,198.715z"/>
				<path style="fill:#CE6042;" d="M507.93,226.355c-2.41,2.04-4.89,3.97-7.48,5.76c-3,2.12-6.08,4.07-9.49,5.8
					c-3.95,2.01-8.79,0.43-10.8-3.53c-1.19-2.35-1.12-5.01-0.03-7.21l0.12-0.22c1.23-2.46,2.63-4.82,4.07-7.11
					C488.24,223.645,495.579,228.005,507.93,226.355z"/>
			</g>
			<g>
				<path style="fill:#FF8E6E;" d="M449.395,153.583c-7.053,0.501-16.712,5.383-22.335,11.196c0,0-7.124,8.172-11.062,13.347
					c-0.151-0.23-0.299-0.458-0.45-0.689c-3.84-5.749-7.832-11.544-12.41-17.043l-0.082-0.099c-1.643-1.944-4.206-3.044-6.92-2.702
					c-4.265,0.536-7.287,4.429-6.75,8.693c0.912,7.25,2.515,14.158,4.418,21.046c0.985,3.429,2.018,6.853,3.243,10.284
					c1.575,4.413,3.116,9.154,5.993,12.916c1.536,2.009,3.523,3.669,5.835,4.712c3.98,1.797,8.611,1.652,12.595-0.058
					c2.573-1.104,4.807-2.864,6.891-4.705c1.862-1.646,3.217-3.063,4.601-4.475c2.669-2.831,5.054-5.578,7.309-8.415
					c2.256-2.824,4.39-5.685,6.391-8.63c2.002-2.963,3.882-5.911,5.585-9.166C455.171,174.191,456.019,153.112,449.395,153.583z"/>
				<g>
					<path style="fill:#FF8E6E;" d="M372.006,141.562c1.192-1.022,2.988-0.893,4.009,0.291l6.739,7.809
						c0.109-0.151,0.228-0.284,0.337-0.426l-8.283-13.165c-0.834-1.328-0.434-3.087,0.893-3.92c1.336-0.834,3.086-0.434,3.92,0.893
						l8.084,12.839c0.043-0.018,0.077-0.037,0.12-0.055l0.345-0.122l-5.254-14.825c-0.524-1.475,0.253-3.104,1.727-3.628
						c1.483-0.525,3.104,0.252,3.628,1.727l5.375,15.152c0.182-0.013,0.356-0.035,0.538-0.048l-1.788-10.213
						c-0.274-1.551,0.759-3.021,2.301-3.294c1.559-0.274,3.021,0.768,3.295,2.31l2.245,12.812c0.097,0.059,0.195,0.134,0.292,0.193
						c0.827-3.423,2.001-5.906,2.083-6.073c0.678-1.418,2.377-2.009,3.795-1.331c1.41,0.687,2.009,2.377,1.322,3.795
						c-0.752,1.568-2.214,7.266-2.29,11.911c-0.082,5.021-2.689,9.122-7.216,10.749l-3.139,1.123
						c-5.57,2.002-11.752-0.923-13.754-6.484c-0.421-1.181-0.608-2.386-0.612-3.578l-9.006-10.432
						C370.685,144.379,370.822,142.583,372.006,141.562z"/>
					<g>
						<path style="fill:#CE6042;" d="M393.466,158.653c-0.527-0.971-0.931-2.092-0.922-3.282c-0.025-0.594,0.078-1.188,0.201-1.783
							c0.199-0.566,0.362-1.166,0.693-1.677c0.141-0.271,0.308-0.523,0.492-0.761c0.18-0.242,0.345-0.498,0.563-0.703
							c0.41-0.438,0.86-0.825,1.326-1.181c0.975-0.677,1.987-1.174,3.174-1.457l-0.449,0.428c0.266-0.424,0.522-0.853,0.831-1.26
							c0.299-0.411,0.578-0.83,0.928-1.22l0.014-0.016c0.022-0.025,0.061-0.027,0.085-0.005c0.019,0.018,0.025,0.045,0.016,0.068
							l-1.095,2.75c-0.009,0.022-0.026,0.038-0.046,0.047l-0.005,0.002c-1.944,0.796-3.693,2.156-4.81,3.932
							c-0.296,0.436-0.486,0.928-0.695,1.409c-0.134,0.507-0.313,1.006-0.345,1.535c-0.169,1.045-0.02,2.107,0.165,3.146
							c0.006,0.034-0.016,0.066-0.05,0.072c-0.027,0.005-0.053-0.009-0.065-0.031L393.466,158.653z"/>
					</g>
				</g>
			</g>
			<g>
				<g>
					<defs>
						<polygon id="SVGID_00000135676672334047839790000013796393912157728915_" points="450.83,156.305 467.518,153.119 
							463.384,135.2 447.937,138.213 						"/>
					</defs>
					<use xlink:href="#SVGID_00000135676672334047839790000013796393912157728915_"  style="overflow:visible;fill:#FF8E6E;"/>
					<clipPath id="SVGID_00000023999685448149227780000014375642752227765395_">
						<use xlink:href="#SVGID_00000135676672334047839790000013796393912157728915_"  style="overflow:visible;"/>
					</clipPath>
					<path style="clip-path:url(#SVGID_00000023999685448149227780000014375642752227765395_);fill:#CE6042;" d="M446.212,136.855
						l2.12,13.28c1.15,0.24,2.35,0.37,3.57,0.37c6.15,0,11.58-3.24,14.68-8.09l-2.11-9.13L446.212,136.855z"/>
				</g>
				<g>
					<g>
						<g>
							<path style="fill:#FF8E6E;" d="M479.972,127.728c-2.806,2.995-7.218,3.42-9.856,0.95c-2.637-2.471-2.501-6.902,0.305-9.897
								c2.806-2.995,7.218-3.42,9.856-0.95C482.914,120.302,482.778,124.733,479.972,127.728z"/>
							<path style="fill:#CE6042;" d="M478.651,120.184c0,0-5.859-0.574-6.628,5.514L478.651,120.184z"/>
						</g>
						<g>
							<path style="fill:#FF8E6E;" d="M430.357,127.728c2.806,2.995,7.218,3.42,9.856,0.95c2.637-2.471,2.501-6.902-0.305-9.897
								c-2.806-2.995-7.218-3.42-9.856-0.95C427.415,120.302,427.551,124.733,430.357,127.728z"/>
							<path style="fill:#CE6042;" d="M431.678,120.184c0,0,5.859-0.574,6.628,5.514L431.678,120.184z"/>
						</g>
					</g>
					<path style="fill:#FF8E6E;" d="M455.164,146L455.164,146c9.563,0,17.386-7.824,17.386-17.386v-14.8
						c0-9.563-7.824-17.386-17.386-17.386l0,0c-9.563,0-17.387,7.824-17.387,17.386v14.8C437.778,138.176,445.602,146,455.164,146z"
						/>
					<g>
						<path style="fill:#6B2231;" d="M455.164,96.046c-20.209,0-17.387,21.094-17.387,21.094s1.165-8.097,3.741-10.833h0.032
							c-0.503,1.674-0.901,4.06-0.901,7.447h3.43l0.82-4.48v4.48h2.06l1.02-4.48v4.48h14.23v-4.48l1.11,4.48h4.64
							c0.18-3.095-0.246-5.613-0.78-7.464h0.019c0,0,3.244,9.192,5.352,10.847C472.551,117.137,475.374,96.046,455.164,96.046z"/>
						<path style="fill:#E6B207;" d="M472.477,117.127c0.262-2.603,0.117-5.258-0.405-7.823c-0.532-2.557-1.492-5.062-3.071-7.15
							c-0.783-1.044-1.708-1.977-2.743-2.769c-1.042-0.787-2.206-1.394-3.411-1.889c-2.441-0.933-5.07-1.305-7.683-1.301
							c-2.614-0.005-5.243,0.368-7.683,1.302c-1.205,0.496-2.368,1.103-3.411,1.89c-1.035,0.793-1.96,1.726-2.743,2.77
							c-1.579,2.088-2.538,4.593-3.07,7.15c-0.522,2.565-0.666,5.219-0.404,7.822c0.004,0.041-0.026,0.078-0.067,0.082
							c-0.038,0.004-0.074-0.025-0.082-0.062c-0.284-1.303-0.412-2.632-0.436-3.97c-0.032-1.338,0.038-2.685,0.215-4.031
							c0.419-2.67,1.307-5.352,2.91-7.686c0.792-1.167,1.763-2.234,2.885-3.121c1.123-0.889,2.381-1.586,3.682-2.155
							c2.641-1.063,5.457-1.464,8.203-1.49c2.746,0.022,5.562,0.428,8.204,1.486c2.612,1.1,5.015,2.901,6.571,5.275
							c1.604,2.335,2.49,5.018,2.911,7.688c0.177,1.346,0.246,2.694,0.213,4.032c-0.024,1.338-0.152,2.668-0.438,3.97
							c-0.007,0.041-0.046,0.068-0.087,0.062C472.501,117.203,472.475,117.165,472.477,117.127z"/>
					</g>
					<g>
						<path style="fill:#601222;" d="M462.16,122.485L462.16,122.485c0.584,0,1.062-0.478,1.062-1.062v-3.815
							c0-0.584-0.478-1.062-1.062-1.062l0,0c-0.584,0-1.062,0.478-1.062,1.062v3.815
							C461.098,122.008,461.576,122.485,462.16,122.485z"/>
						<path style="fill:#601222;" d="M448.169,122.485L448.169,122.485c0.584,0,1.062-0.478,1.062-1.062v-3.815
							c0-0.584-0.478-1.062-1.062-1.062l0,0c-0.584,0-1.062,0.478-1.062,1.062v3.815
							C447.108,122.008,447.586,122.485,448.169,122.485z"/>
					</g>
					<path style="fill:none;stroke:#CE6042;stroke-linecap:round;stroke-linejoin:round;stroke-miterlimit:10;" d="M453.199,120.169
						c0,0,0.617,3.775-1.665,5.529l2.02,2.021"/>
					<path style="fill:#FFFFFF;" d="M448.987,131.057c0,3.412,2.766,6.178,6.178,6.178s6.178-2.766,6.178-6.178H448.987z"/>
				</g>
			</g>
			<g>
				<g>
					<g>
						<g>
							<path style="fill:#6B2231;" d="M487.852,417.18v22.732c0,1.376,1.114,2.489,2.489,2.489h30.156
								c1.802,0,2.872-1.343,3.003-2.773c0.044-0.633-0.087-1.288-0.437-1.834c-1.692-2.73-3.625-5.306-5.088-8.167
								c-0.884-1.736-3.537-6.933-3.537-6.933l-1.834-5.47c0.175,0.775,2.5,11.682-5.656,12.567
								C494.796,431.09,487.852,417.18,487.852,417.18z"/>
							<path style="fill:#FF8E6E;" d="M506.95,429.794c-12.15,1.3-19.1-12.61-19.1-12.61h24.74c0,0,0,0.01,0.01,0.04
								c0,0.02,0.01,0.04,0.02,0.07C512.88,418.504,514.91,428.924,506.95,429.794z"/>
						</g>
					</g>
					<path style="fill:#FF8E6E;" d="M512.609,417.225h-0.01c-0.01-0.03-0.01-0.04-0.01-0.04h-24.73c0,0-1.2-4.24-2.99-10.8
						c10.78,0.03,20.25-0.54,26.82-1.1L512.609,417.225z"/>
					<path style="fill:#CE6042;" d="M511.69,405.285c-6.57,0.56-16.04,1.13-26.82,1.1c-1.68-6.12-3.88-14.26-6.12-22.83l31.44,2.35
						L511.69,405.285z"/>
					<path style="fill:#FF8E6E;" d="M512.599,417.225l-24.74-0.04h24.73C512.589,417.185,512.589,417.194,512.599,417.225z"/>
					<g>
						<g>
							<g>
								<path style="fill:#6B2231;" d="M464.199,417.18v22.732c0,1.376-1.114,2.489-2.489,2.489h-30.156
									c-1.802,0-2.872-1.343-3.003-2.773c-0.044-0.633,0.087-1.288,0.437-1.834c1.692-2.73,3.625-5.306,5.088-8.167
									c0.884-1.736,3.537-6.933,3.537-6.933l1.834-5.47c-0.175,0.775-2.5,11.682,5.656,12.567
									C457.255,431.09,464.199,417.18,464.199,417.18z"/>
								<path style="fill:#FF8E6E;" d="M464.2,417.185c0,0-6.94,13.91-19.1,12.61c-7.96-0.87-5.93-11.29-5.67-12.5
									c0.01-0.03,0.02-0.05,0.02-0.07c0.01-0.03,0.01-0.04,0.01-0.04H464.2z"/>
							</g>
						</g>
						<path style="fill:#FF8E6E;" d="M465.369,405.655c-0.68,6.92-1.17,11.53-1.17,11.53h-24.74c0,0,0,0.01-0.01,0.04l-1.48-15.14
							C444.52,403.395,453.64,404.805,465.369,405.655z"/>
						<path style="fill:#FF8E6E;" d="M439.46,417.185h24.74l-24.75,0.04C439.46,417.194,439.46,417.185,439.46,417.185z"/>
						<path style="fill:#CE6042;" d="M467.52,382.715c-0.74,8.41-1.53,16.63-2.15,22.94c-11.73-0.85-20.85-2.26-27.4-3.57
							l-2.13-21.74L467.52,382.715z"/>
					</g>
				</g>
				<g>
					<defs>
						<path id="SVGID_00000089535578516451741330000015392501462331915158_" d="M521.28,391.254c0,0-21.874,2.988-47.757,1.839
							c-32.494-1.442-48.263-7.309-48.263-7.309c-12.23-68.81,6.62-171.91,6.62-171.91s20.38,4.19,48.68,1.05l0.1-0.01l7.76-1.04
							C488.42,213.874,515.41,266.025,521.28,391.254z"/>
					</defs>
					<use xlink:href="#SVGID_00000089535578516451741330000015392501462331915158_"  style="overflow:visible;fill:#E6B207;"/>
					<clipPath id="SVGID_00000183208523810503470390000007873423805144556731_">
						<use xlink:href="#SVGID_00000089535578516451741330000015392501462331915158_"  style="overflow:visible;"/>
					</clipPath>
					<g style="clip-path:url(#SVGID_00000183208523810503470390000007873423805144556731_);">
						<path style="fill:#F6851B;" d="M442.579,395.783l-0.64-0.03c-2.52-12.47-4.14-25.11-5.32-37.79l-0.9-11.967
							c-0.27-3.989-0.37-7.988-0.57-11.987l-0.25-5.999l-0.1-5.999c-0.04-3.999-0.19-7.998-0.14-11.997
							c-0.03-16.006,0.58-32.003,1.49-47.979c0.96-15.966,2.24-31.922,4.11-47.808l0.2,0.02c-0.56,7.988-1.16,15.956-1.54,23.944
							l-0.37,5.979l-0.31,5.989c-0.23,3.989-0.39,7.978-0.54,11.967c-0.62,15.966-1.22,31.922-1.05,47.889
							c-0.05,15.956,0.39,31.912,1.51,47.818c0.08,1.99,0.27,3.979,0.46,5.958l0.55,5.958l0.55,5.958l0.8,5.918l0.75,5.948
							l0.37,2.964c0.13,0.995,0.35,1.969,0.52,2.954C442.299,394.255,442.44,395.019,442.579,395.783z"/>
						<path style="fill:#F6851B;" d="M466.379,396.637l-0.59-0.02c-2.26-12.721-3.97-25.532-5.37-38.363
							c-1.61-15.795-2.72-31.641-3.51-47.497c-0.68-15.856-1.03-31.731-1.1-47.607c-0.04-15.876,0.16-32.082,0.79-47.938l0.2,0.01
							c0.07,7.938,0.03,16.197,0.21,24.134c0.05,7.928,0.16,15.866,0.36,23.784c0.25,7.928,0.28,15.856,0.58,23.773
							c0.21,7.928,0.61,15.836,0.96,23.753c0.39,7.908,0.69,15.826,1.27,23.733c0.27,3.949,0.47,7.908,0.85,11.846
							c0.36,3.939,0.65,7.888,0.93,11.847l1.14,11.816c0.2,1.969,0.35,3.949,0.61,5.918l0.74,5.888l0.67,5.908l0.35,2.954
							l0.44,2.934C466.069,394.547,466.23,395.592,466.379,396.637z"/>
						<path style="fill:#F6851B;" d="M489.22,397.461l-0.54-0.02c-0.34-5.335-0.64-10.671-1.14-15.996
							c-0.31-3.979-0.53-7.958-0.87-11.927l-1.02-11.917c-1.45-15.876-2.77-31.762-4.62-47.597c-0.38-3.969-0.81-7.938-1.23-11.897
							c-0.42-3.969-0.84-7.928-1.3-11.887c-0.47-3.959-0.89-7.928-1.39-11.877l-0.72-5.938l-0.66-5.948
							c-0.91-7.918-1.86-15.836-2.86-23.753c-0.89-7.928-1.95-15.836-2.88-23.763l0.2-0.04c2.63,15.745,4.94,31.541,7.08,47.356
							c2.13,15.815,4.04,31.661,5.74,47.537c1.7,15.866,3.03,31.772,4.19,47.698C488.14,370.793,488.799,384.127,489.22,397.461z"/>
						<path style="fill:#F6851B;" d="M511.579,398.265l-0.5-0.02c-0.09-1.658-0.18-3.316-0.25-4.974l-0.3-6.069
							c-0.11-2.02-0.32-4.039-0.47-6.059l-0.86-12.108c-0.34-4.029-0.8-8.048-1.19-12.078c-0.76-8.048-1.79-16.077-2.7-24.105
							l-1.71-12.007c-0.3-2-0.55-4.009-0.88-5.999l-1-5.988c-1.17-7.998-2.62-15.956-4.04-23.914l-2.34-11.907
							c-0.37-1.99-0.85-3.949-1.25-5.928l-1.21-5.948c-0.8-3.969-1.73-7.908-2.58-11.857c-0.89-3.949-1.86-7.878-2.79-11.816
							c-1.84-7.888-3.89-15.725-6.02-23.542l0.19-0.07c4.96,15.444,9.07,31.139,12.72,46.934c0.87,3.959,1.8,7.908,2.63,11.867
							l2.44,11.917c1.48,7.968,3,15.936,4.22,23.954l0.96,5.999c0.32,2.01,0.56,4.019,0.84,6.029l1.62,12.048l1.32,12.098
							c0.21,2.01,0.47,4.029,0.63,6.049l0.49,6.059C510.839,370.603,511.339,384.428,511.579,398.265z"/>
					</g>
				</g>
			</g>
			<g>
				<defs>
					<path id="SVGID_00000021110027315566325720000006185972396571251098_" d="M487.904,158.777
						c-3.885-2.415-16.964-5.663-21.874-5.663h-11.76c-1.663,0-3.287,0.165-4.861,0.471c-0.006,0-0.012-0.001-0.019-0.001
						c-3.45,0.24-7.52,1.53-11.44,3.47c-2.16,1.724-4.5,4.357-5.314,7.989c-2.987,3.891-6.954,8.447-6.954,13.391
						c0,5.26,3.875,8.055,3.875,8.055l2.323,27.385c0,0,20.38,4.19,48.68,1.05l0.1-0.01l7.76-1.04l3-35.37
						C491.42,169.395,495.113,163.257,487.904,158.777z"/>
				</defs>
				<use xlink:href="#SVGID_00000021110027315566325720000006185972396571251098_"  style="overflow:visible;fill:#FFEBDB;"/>
				<clipPath id="SVGID_00000096761376154499500630000003183786438467176339_">
					<use xlink:href="#SVGID_00000021110027315566325720000006185972396571251098_"  style="overflow:visible;"/>
				</clipPath>
				<path style="clip-path:url(#SVGID_00000096761376154499500630000003183786438467176339_);fill:#FF8E6E;" d="M471.64,152.415
					c-9.65,4.34-24.28,19.22-24.28,19.22s-2.2-14.98,1.3-18.52L471.64,152.415z"/>
				<path style="clip-path:url(#SVGID_00000096761376154499500630000003183786438467176339_);fill:#6B2231;" d="M489.094,208.643
					l-0.532,5.212l-7.902,1.059l-0.1,0.01c-28.3,3.14-49.022-1.057-49.022-1.057l-0.334-5.224c3.25,0.6,23.376,4.001,50.106,1.031
					l0.11-0.01L489.094,208.643z"/>
			</g>
			<g>
				<path style="fill:#FF8E6E;" d="M525.183,198.755c-0.479-3.931-2.507-7.754-4.834-10.875c-1.423-1.908-2.744-3.449-4.049-4.902
					c-7.162-7.908-15.23-15.006-23.588-21.62l-0.089-0.072c-0.33-0.26-0.674-0.508-1.031-0.743
					c-6.924-4.564-17.227-3.211-20.802,4.272c-4.737,9.916,3.671,20.561,10.595,25.126c1.197,0.789,6.568,4.645,9.024,6.505
					c2.454,1.849,4.868,3.699,6.955,5.489c1.04,0.883,1.986,1.76,2.656,2.417c0.213,0.201,0.538,0.518,0.78,0.738
					c2.096,5.279,7.556,8.681,13.446,7.913c4.589-0.598,8.57-3.736,10.23-8.056C525.26,202.911,525.435,200.818,525.183,198.755z"/>
				<g>
					<g>
						<path style="fill:#CE6042;" d="M490.44,196.406l5.337,4.16c0.894,0.689,1.788,1.376,2.596,2.168
							c0.828,0.767,1.669,1.522,2.474,2.307c0.007,0.006,0.014,0.017,0.018,0.025c0.356,0.912,0.819,1.784,1.377,2.59
							c0.016,0.022,0.01,0.053-0.012,0.068c-0.019,0.013-0.043,0.011-0.059-0.003l-0.01-0.008c-0.395-0.328-0.727-0.714-1.048-1.116
							c-0.332-0.396-0.603-0.837-0.839-1.297l0.146,0.211c-0.458-0.345-0.921-0.701-1.374-1.021l-1.302-1.048
							c-0.818-0.747-1.723-1.413-2.579-2.136c-1.716-1.441-3.343-2.989-4.782-4.821l-0.009-0.011
							c-0.017-0.021-0.013-0.052,0.008-0.069C490.398,196.392,490.423,196.393,490.44,196.406z"/>
					</g>
				</g>
			</g>
		</g>
		<g>
			<g>
				<g>
					<g>
						<g>
							<path style="fill:#55B6E0;" d="M607.904,378.566l9.064,8.455l-28.6,54.895c-1.269-0.671-2.189-2.028-1.966-3.841
								l2.789-19.814l-0.484-24.051L607.904,378.566z"/>
							<path style="fill:#FFEBDB;" d="M616.968,387.021l3.48,1.813l-26.831,51.499c-1.062,2.039-3.231,2.459-4.904,1.743
								c-0.119-0.052-0.23-0.1-0.345-0.16L616.968,387.021z"/>
						</g>
						<polygon style="fill:#FFEBDB;" points="605.44,359.879 581.694,367.536 588.707,394.21 607.904,378.566 						"/>
					</g>
					<g>
						<path style="fill:#55B6E0;" d="M620.569,416.982v21.419h35.595c-0.069-0.277-0.182-0.536-0.337-0.778
							c-1.703-2.731-3.63-5.307-5.091-8.168c-0.89-1.737-3.544-6.95-3.544-6.95l-1.85-5.523H620.569z"/>
						<path style="fill:#FFEBDB;" d="M620.569,438.402v1.34c0,1.383,1.115,2.498,2.489,2.498h30.202
							c1.806,0,2.878-1.348,2.999-2.775c0.026-0.354,0-0.717-0.095-1.063H620.569z"/>
					</g>
				</g>
				<path style="fill:#174566;" d="M656.743,226.399c-0.36,25.14-1.56,50.27-2.88,75.38l-4.5,115.81l-34.711-0.607l4.771-169.543
					l-15.39,69.56l10.17,63.55l-34.37,4.63l-10.6-65.96c-0.35-2.15-0.28-4.36,0.19-6.49l17.94-81.06l0.04-5.74
					C599.483,227.639,629.333,230.929,656.743,226.399z"/>
			</g>
			<g>
				<g>
					<path style="fill:#FFEBDB;" d="M656.763,225.059c-0.01,0.45-0.01,0.89-0.02,1.34c-27.41,4.53-57.26,1.24-69.34-0.47v-0.87
						l0.29-46.72c0-14.02,11.36-25.39,25.39-25.39h17.74c14.03,0,25.39,11.37,25.39,25.39
						C656.843,193.909,656.973,209.479,656.763,225.059z"/>
					<path style="fill:#CE6042;" d="M634.783,153.259c-3.06,4.92-8.73,8.66-14.04,8.89c-5.78,0.26-9.17-3.72-8.25-9.19
						c0.2-0.01,0.39-0.01,0.59-0.01h17.74C632.173,152.949,633.493,153.049,634.783,153.259z"/>
				</g>
				<g>
					<path style="fill:#55B6E0;" d="M657.573,197.969l-0.72-36.69c-4.811-2.901-14.11-7.2-23.14-8.16c-0.53-0.14-1.02-0.2-1.46-0.13
						c-6.72,0.99-8.7,9.72-8.7,9.72l-0.37,72.05c0,0,5.51,1.29,11.88-1.05c10.5-3.87,14.53-6.12,23.2-0.58L657.573,197.969z"/>
					<g>
						<path style="fill:#4192D9;" d="M630.244,226.14c1.058-0.453,2.114-0.868,3.131-1.371c1.035-0.446,2.048-0.937,3.02-1.481
							c0.966-0.549,1.951-1.062,2.83-1.697c0.899-0.622,1.747-1.359,2.666-2.055c0.93-0.68,1.909-1.36,2.992-1.915
							c1.082-0.544,2.286-0.978,3.532-1.023c1.237-0.07,2.457,0.111,3.582,0.485c1.115,0.413,2.167,0.92,3.11,1.593l0.006,0.005
							c0.022,0.016,0.028,0.047,0.012,0.069c-0.014,0.02-0.041,0.026-0.062,0.016c-2.029-0.986-4.294-1.692-6.556-1.408
							c-2.277,0.263-4.236,1.579-6.014,2.966c-0.904,0.691-1.802,1.399-2.756,2.032c-0.954,0.635-1.967,1.172-3.002,1.655
							c-2.078,0.953-4.246,1.697-6.468,2.227c-0.026,0.006-0.053-0.01-0.06-0.037c-0.006-0.024,0.007-0.048,0.029-0.057
							L630.244,226.14z"/>
					</g>
				</g>
				<g>
					<g>
						<path style="fill:#CE6042;" d="M660.133,239.699c0,0-1.85,4.61-4.11,9.32c-1.81-0.35-11.26-2.45-15.99-8.33c0,0,0,0,0-0.01
							c-0.14-0.31-0.3-0.53-0.47-0.61c-0.72-0.35-1.8,0.96-2.05,1.27l-3.44,3.76c-1.25,1.51-3.4,1.66-5.03,0.57
							c-2.56-1.69-0.34-4.1,0.21-4.75c0,0,0.48-0.59,1.15-1.43c1.28-1.58,2.97-5.09,4.12-5.83c1.91-1.23,7.945-3.82,11.59-3.82
							L660.133,239.699z"/>
						<g>
							<path style="fill:#6794CF;" d="M656.313,249.149c-1.703,0.222-3.382,0.051-5.019-0.288c-1.644-0.331-3.232-0.901-4.763-1.617
								c-1.503-0.775-2.951-1.704-4.2-2.881c-1.231-1.194-2.278-2.624-2.825-4.245l0.122-0.087c0.974,1.287,2.138,2.412,3.416,3.394
								c1.304,0.948,2.697,1.766,4.146,2.473c1.446,0.712,2.945,1.321,4.474,1.84c1.53,0.513,3.091,0.955,4.674,1.263
								L656.313,249.149z"/>
						</g>
					</g>
					<g>
						<path style="fill:#55B6E0;" d="M643.961,189.026l4.384,2.856c2.926,1.886,5.805,3.808,8.626,5.679
							c1.406,0.94,2.775,1.897,4.106,2.834c1.032,0.716,2.018,1.429,2.959,2.13c-1.677,2.623-3.473,5.335-5.31,8.049
							c-3.953,5.887-8.796,13.119-12.613,19.265c0,0,1.904,3.048,5.69,6.02c2.968,2.33,8.33,3.84,8.33,3.84
							c3.078-2.282,5.659-3.59,8.526-6.024l4.226-3.715l4.142-3.849c2.73-2.627,5.433-5.31,8.104-8.259
							c4.117-4.546,8.605-9.714,9.399-16.034c0.72-5.733-2.081-11.108-5.638-15.392c-1.805-2.173-3.43-3.741-5.027-5.247
							c-3.172-2.975-6.233-5.481-9.349-7.866c-3.087-2.401-6.223-4.604-9.371-6.75c-1.588-1.052-3.16-2.119-4.776-3.119
							c-0.777-0.494-4.052-2.687-8.783-4.946L643.961,189.026z"/>
						<g>
							<path style="fill:#4192D9;" d="M664.001,202.49c0.463-0.601,0.973-1.158,1.496-1.704c0.522-0.547,1.053-1.092,1.637-1.578
								c1.167-0.969,2.338-1.978,3.835-2.636c0.377-0.161,0.768-0.31,1.209-0.403c0.437-0.106,0.955-0.107,1.374-0.061
								c0.871,0.096,1.654,0.362,2.394,0.674c1.481,0.647,2.719,1.559,3.943,2.565c0.349,0.286,0.399,0.801,0.113,1.15
								c-0.18,0.218-0.454,0.319-0.716,0.294c-0.993-0.103-2.044-0.133-3.07-0.161c-1.032-0.044-2.067-0.049-3.1-0.002
								c-1.032,0.057-2.057,0.165-3.088,0.292c-1.025,0.155-2.034,0.396-3.043,0.714l-0.008,0.002
								c-0.026,0.008-0.054-0.006-0.062-0.033c-0.008-0.024,0.004-0.049,0.026-0.06c1.918-0.907,4.016-1.331,6.108-1.561
								c2.099-0.212,4.213-0.247,6.321-0.095l-0.064,0.153c-1.157-0.927-2.419-1.742-3.763-2.365
								c-0.673-0.305-1.378-0.556-2.106-0.652c-0.729-0.122-1.456,0.069-2.139,0.35c-1.369,0.571-2.61,1.423-3.805,2.309
								c-1.19,0.898-2.333,1.862-3.423,2.879c-0.02,0.019-0.052,0.018-0.07-0.002c-0.017-0.018-0.018-0.045-0.003-0.064
								L664.001,202.49z"/>
						</g>
						<g>
							<path style="fill:#4192D9;" d="M646.06,168.702c-0.39,2.762-0.443,5.572-0.253,8.354c0.194,2.783,0.698,5.548,1.555,8.199
								c0.865,2.644,2.111,5.185,3.849,7.366c1.714,2.202,3.93,3.983,6.385,5.303c0.024,0.013,0.033,0.043,0.02,0.067
								c-0.012,0.023-0.044,0.03-0.067,0.021c-1.311-0.515-2.583-1.179-3.759-2.001c-1.15-0.85-2.241-1.811-3.187-2.907
								c-1.925-2.177-3.224-4.832-4.192-7.539c-0.816-2.764-1.327-5.606-1.382-8.455c-0.017-1.424,0.029-2.844,0.158-4.254
								c0.189-1.406,0.371-2.809,0.773-4.17c0.005-0.027,0.032-0.045,0.059-0.039C646.045,168.651,646.061,168.678,646.06,168.702z"
								/>
						</g>
						<g>
							<path style="fill:#4192D9;" d="M658.768,210.602l-6.264,9.659l-6.348,9.605c-0.015,0.023-0.046,0.029-0.069,0.014
								c-0.02-0.014-0.028-0.04-0.018-0.061l0.002-0.006c1.531-3.566,3.509-6.866,5.594-10.094c1.07-1.596,2.141-3.192,3.324-4.714
								l1.775-2.28c0.643-0.726,1.237-1.483,1.922-2.179l0.006-0.006c0.019-0.02,0.051-0.02,0.07-0.001
								C658.778,210.557,658.78,210.583,658.768,210.602z"/>
						</g>
					</g>
				</g>
				<g>
					<g>
						<path style="fill:#55B6E0;" d="M605.278,165.291c-4.19-7.315-11.113-9.848-18.428-5.658l-0.153,0.088
							c-3.927,2.249-12.191,7.191-16.635,9.572c-0.845-3.32-1.813-6.654-3.006-9.976l-0.049-0.137
							c-0.812-2.225-2.57-4.086-4.974-4.945c-4.291-1.535-9.014,0.699-10.549,4.99c-2.237,6.253-3.628,12.465-4.688,18.799
							c-0.536,3.171-0.917,6.351-1.208,9.663c-0.128,1.667-0.225,3.342-0.255,5.228c0.015,3.126,0.31,6.285,1.674,9.144
							c2.45,5.133,7.697,8.621,13.41,8.751c1.662,0.038,3.313-0.169,4.913-0.622c3.056-0.866,5.958-2.498,8.659-4.142
							c1.541-0.938,2.976-1.799,4.347-2.721c2.756-1.803,8.349-5.653,10.878-7.568c5.032-3.868,9.791-7.865,14.104-12.6
							C607.648,178.39,608.651,171.182,605.278,165.291z"/>
						<g>
							<path style="fill:#4192D9;" d="M570.11,169.286c1.054,3.032,1.595,6.143,2.007,9.267c0.173,1.566,0.345,3.132,0.385,4.712
								l0.056,2.369c-0.042,0.796-0.028,1.585-0.121,2.385l-0.001,0.009c-0.003,0.027-0.028,0.047-0.055,0.043
								c-0.023-0.003-0.041-0.021-0.043-0.043l-1.212-9.359l-1.114-9.371c-0.003-0.027,0.016-0.052,0.043-0.055
								c0.024-0.003,0.045,0.011,0.053,0.033L570.11,169.286z"/>
						</g>
						<g>
							<path style="fill:#4192D9;" d="M570.081,169.247c0.705,0.195,1.388,0.452,2.059,0.74c0.671,0.289,1.348,0.585,1.984,0.968
								c0.638,0.376,1.263,0.792,1.849,1.296c0.58,0.51,1.158,1.073,1.54,1.921c0.3,0.955,0.256,1.66,0.276,2.429
								c-0.001,0.752-0.05,1.484-0.102,2.217c-0.055,0.732-0.129,1.457-0.21,2.182c-0.104,0.723-0.229,1.435-0.362,2.161
								l-0.001,0.008c-0.086,0.466-0.533,0.775-0.999,0.69c-0.374-0.069-0.646-0.371-0.696-0.728
								c-0.135-0.984-0.396-2.059-0.707-3.068c-0.331-1.014-0.65-2.04-1.06-3.035c-0.396-1.003-0.887-1.963-1.391-2.926
								c-0.483-0.98-1.101-1.878-1.686-2.825l-0.005-0.007c-0.014-0.023-0.007-0.054,0.016-0.068
								c0.021-0.013,0.048-0.008,0.063,0.01c1.453,1.662,2.691,3.516,3.644,5.51c0.959,1.99,1.69,4.094,2.07,6.283l-0.184-0.003
								c0.225-1.419,0.419-2.846,0.567-4.275c0.067-0.715,0.132-1.431,0.149-2.148c0.009-0.711,0.027-1.447-0.171-2.113
								c-0.252-0.656-0.73-1.211-1.237-1.706c-0.512-0.499-1.084-0.935-1.678-1.337c-1.186-0.807-2.459-1.492-3.766-2.084
								c-0.025-0.011-0.036-0.041-0.025-0.066c0.01-0.023,0.035-0.034,0.059-0.027L570.081,169.247z"/>
						</g>
					</g>
					<g>
						<path style="fill:#CE6042;" d="M536.413,139.507c1.157-1.062,2.956-0.994,4.017,0.154l7.001,7.575
							c0.104-0.154,0.218-0.292,0.323-0.437l-8.727-12.875c-0.879-1.298-0.539-3.07,0.759-3.949c1.307-0.879,3.07-0.539,3.949,0.759
							l8.516,12.557c0.042-0.02,0.076-0.039,0.118-0.059l0.341-0.133l-5.755-14.637c-0.574-1.456,0.147-3.111,1.603-3.685
							c1.465-0.575,3.111,0.147,3.685,1.603l5.888,14.96c0.182-0.02,0.354-0.047,0.536-0.067l-2.135-10.146
							c-0.326-1.54,0.656-3.045,2.188-3.371c1.549-0.327,3.045,0.665,3.371,2.196l2.68,12.728c0.099,0.055,0.199,0.128,0.298,0.183
							c0.711-3.449,1.798-5.971,1.876-6.141c0.629-1.44,2.307-2.088,3.747-1.459c1.432,0.638,2.089,2.307,1.451,3.748
							c-0.698,1.592-1.965,7.337-1.883,11.982c0.089,5.021-2.377,9.208-6.846,10.989l-3.099,1.229
							c-5.499,2.19-11.776-0.522-13.966-6.013c-0.461-1.166-0.689-2.364-0.733-3.555l-9.356-10.119
							C535.188,142.368,535.265,140.568,536.413,139.507z"/>
						<g>
							<path style="fill:#993C21;" d="M558.43,155.861c-0.654-0.931-1.112-2.053-1.181-3.266c-0.056-0.604,0.01-1.219,0.111-1.833
								c0.178-0.587,0.314-1.213,0.634-1.749c0.134-0.283,0.295-0.547,0.474-0.798c0.175-0.254,0.333-0.524,0.55-0.74
								c0.406-0.46,0.853-0.868,1.317-1.246c0.979-0.715,1.992-1.237,3.208-1.54l-0.522,0.532c0.268-0.427,0.526-0.858,0.831-1.271
								c0.287-0.42,0.618-0.824,0.974-1.219l0.019-0.021c0.027-0.03,0.072-0.032,0.102-0.005c0.022,0.02,0.029,0.051,0.02,0.078
								l-0.997,2.788c-0.009,0.027-0.029,0.047-0.053,0.058l-0.006,0.003c-1.912,0.862-3.603,2.285-4.659,4.088
								c-0.281,0.444-0.454,0.94-0.647,1.427c-0.117,0.51-0.279,1.013-0.295,1.541c-0.135,1.048,0.048,2.103,0.267,3.134
								c0.008,0.04-0.017,0.079-0.057,0.087c-0.03,0.006-0.059-0.006-0.075-0.03L558.43,155.861z"/>
						</g>
					</g>
				</g>
				<g>
					<path style="fill:#55B6E0;" d="M614.123,153.009l-0.57,9.7l-4.63,73.58c0,0-15.37-1.469-23.09-7.019l1.74-32.291l-1.74-4.03
						v-32.72C600.593,151.749,614.123,153.009,614.123,153.009z"/>
					<g>
						<path style="fill:#4192D9;" d="M587.527,196.977c-0.575-4.013-0.63-8.014-0.557-12.011c0.07-1.998,0.141-3.996,0.345-5.991
							l0.31-2.992c0.164-0.996,0.271-1.993,0.487-2.988l0.002-0.009c0.006-0.027,0.032-0.044,0.059-0.038
							c0.024,0.005,0.039,0.026,0.039,0.049l-0.243,11.992l-0.342,11.989c-0.001,0.027-0.024,0.049-0.051,0.048
							c-0.025-0.001-0.044-0.019-0.048-0.043L587.527,196.977z"/>
					</g>
				</g>
			</g>
			<g>
				<polygon style="fill:#4192D9;" points="635.824,147.998 612.794,147.998 611.794,152.96 635.816,152.96 				"/>
				<g>
					<defs>
						<polygon id="SVGID_00000006668848771050856920000017916698577795584435_" points="615.315,154.442 632.303,154.442 
							631.679,136.131 615.94,136.131 						"/>
					</defs>
					<use xlink:href="#SVGID_00000006668848771050856920000017916698577795584435_"  style="overflow:visible;fill:#CE6042;"/>
					<clipPath id="SVGID_00000160165006223680986700000006274840796655580094_">
						<use xlink:href="#SVGID_00000006668848771050856920000017916698577795584435_"  style="overflow:visible;"/>
					</clipPath>
					<path style="clip-path:url(#SVGID_00000160165006223680986700000006274840796655580094_);fill:#993C21;" d="M614.282,146.239
						c2.739,1.813,6.016,2.871,9.53,2.871c3.513,0,6.791-1.058,9.53-2.871l-0.397-11.579h-18.275L614.282,146.239z"/>
				</g>
				<g>
					<g>
						<polygon style="fill:#55B6E0;" points="612.794,147.998 614.127,152.629 608.39,162.465 609.867,153.566 						"/>
						<polygon style="fill:#4192D9;" points="614.127,152.629 613.548,162.706 610.571,158.725 						"/>
						<g>
							<path style="fill:#4192D9;" d="M614.159,152.648c-0.348,0.896-0.76,1.754-1.15,2.625l-1.271,2.554
								c-0.437,0.843-0.914,1.664-1.369,2.497c-0.467,0.826-0.9,1.672-1.413,2.471l-1.89,2.947l0.676-3.385
								c0.295-1.475,0.522-2.961,0.872-4.427l0.516-2.2c0.183-0.731,0.401-1.457,0.6-2.186l0.01-0.036l0.004-0.006l0.416-0.574
								l0.066,0.035l-0.324,0.622l0.004-0.012l-1.446,8.903l-0.133-0.048l5.767-9.818L614.159,152.648z"/>
						</g>
					</g>
					<g>
						<polygon style="fill:#55B6E0;" points="635.824,147.998 627.438,152.629 627.813,163.465 636.282,153.566 						"/>
						<polygon style="fill:#4192D9;" points="627.438,152.629 623.548,162.706 627.608,157.555 						"/>
						<g>
							<path style="fill:#4192D9;" d="M627.475,152.628l0.409,10.834l-0.126-0.044l8.495-9.876l0.057,0.049
								c-0.59,0.923-1.236,1.8-1.866,2.69l-1.972,2.599l-2.061,2.522c-0.692,0.837-1.367,1.688-2.102,2.487l-1.124,1.222
								l-0.025-1.624l-0.042-2.711c-0.026-0.903-0.019-1.807,0.013-2.712c0.029-1.809,0.097-3.62,0.268-5.434L627.475,152.628z"/>
						</g>
					</g>
				</g>
				<g>
					<g>
						<g>
							<path style="fill:#CE6042;" d="M648.617,127.562c-2.806,2.995-7.218,3.42-9.856,0.95c-2.637-2.471-2.501-6.902,0.305-9.897
								c2.806-2.995,7.218-3.42,9.856-0.95C651.559,120.136,651.422,124.567,648.617,127.562z"/>
							<path style="fill:#993C21;" d="M647.296,120.018c0,0-5.859-0.574-6.628,5.515L647.296,120.018z"/>
						</g>
						<g>
							<path style="fill:#CE6042;" d="M599.002,127.562c2.806,2.995,7.218,3.42,9.856,0.95c2.637-2.471,2.501-6.902-0.305-9.897
								c-2.806-2.995-7.218-3.42-9.856-0.95C596.06,120.136,596.196,124.567,599.002,127.562z"/>
							<path style="fill:#993C21;" d="M600.323,120.018c0,0,5.859-0.574,6.628,5.515L600.323,120.018z"/>
						</g>
					</g>
					<path style="fill:#CE6042;" d="M623.809,145.834L623.809,145.834c9.563,0,17.386-7.824,17.386-17.386v-14.8
						c0-9.563-7.824-17.386-17.386-17.386l0,0c-9.563,0-17.387,7.824-17.387,17.387v14.8
						C606.423,138.011,614.247,145.834,623.809,145.834z"/>
					<path style="fill:#6B2231;" d="M640.572,96.464l-33.347-2.752c-0.843-0.07-1.564,0.6-1.556,1.446l0.753,25.412
						c0,0,3.852-3.531,3.815-4.878c-0.038-1.347-0.338-3.622-0.456-4.893c-0.306-3.271,2.852-8.324,8.226-7.644
						c1.867,0.237,3.535,3.246,5.802,3.246c2.267,0,3.935-3.009,5.802-3.246c5.375-0.68,8.532,4.373,8.226,7.644
						c-0.119,1.271-0.418,3.546-0.456,4.893c-0.038,1.348,3.814,4.878,3.814,4.878l0.694-22.593
						C641.933,97.2,641.349,96.529,640.572,96.464z"/>
					<g>
						<path style="fill:#601222;" d="M630.804,122.32L630.804,122.32c0.584,0,1.062-0.478,1.062-1.062v-3.816
							c0-0.584-0.478-1.062-1.062-1.062l0,0c-0.584,0-1.062,0.478-1.062,1.062v3.816C629.742,121.842,630.22,122.32,630.804,122.32z
							"/>
						<path style="fill:#601222;" d="M616.814,122.32L616.814,122.32c0.584,0,1.062-0.478,1.062-1.062v-3.816
							c0-0.584-0.478-1.062-1.062-1.062l0,0c-0.584,0-1.062,0.478-1.062,1.062v3.816C615.752,121.842,616.23,122.32,616.814,122.32z
							"/>
					</g>
					<path style="fill:none;stroke:#993C21;stroke-linecap:round;stroke-linejoin:round;stroke-miterlimit:10;" d="M621.844,120.004
						c0,0,0.617,3.775-1.665,5.529l2.02,2.021"/>
					<path style="fill:#FFFFFF;" d="M617.631,130.891c0,3.412,2.766,6.178,6.178,6.178c3.412,0,6.178-2.766,6.178-6.178H617.631z"/>
				</g>
			</g>
		</g>
	</g>
</g>
</svg>
